<?xml version="1.0" encoding="utf-8"?>
<!-- Generator: Adobe Illustrator 17.0.0, SVG Export Plug-In . SVG Version: 6.00 Build 0)  -->
<!DOCTYPE svg PUBLIC "-//W3C//DTD SVG 1.1//EN" "http://www.w3.org/Graphics/SVG/1.1/DTD/svg11.dtd">
<svg version="1.1" id="Layer_1" xmlns="http://www.w3.org/2000/svg" xmlns:xlink="http://www.w3.org/1999/xlink" x="0px" y="0px"
	 width="612px" height="792px" viewBox="0 0 612 792" enable-background="new 0 0 612 792" xml:space="preserve">
<g>
	<g>
		<g>
			<path fill="#F6A11D" d="M128.605,295.471c1.712,1.511,3.146,3.357,4.841,4.899c8.003,7.342,17.628,12.128,27.382,15.939
				c13.15,5.303,26.782,9.095,39.784,14.864c3.015,1.492,6.269,2.779,8.723,5.303c1.876,2.045,1.253,5.203,0.51,7.659
				c8.394,2.437,16.675,5.713,24.038,10.835c3.724,2.698,7.924,4.774,10.996,8.43c1.202,1.399,2.086,3.655,0.896,5.396
				c-3.628,6.229-9.437,10.506-15.445,13.589c-4.461,2.281-9.109,4.128-13.858,5.539c2.029-4.122,7.612-5.788,7.754-11.14
				c-3.877-3.202-9.001-3.133-13.569-4.134c-8.304-0.696-16.715-0.143-24.82,2.02c-1.077,0.429-2.721,0.827-2.777,2.368
				c1.185,2.368,3.236,3.991,5.13,5.645c3.577,2.891,7.357,5.701,11.688,7.018c2.896,0.951,5.917,1.281,8.91,1.654
				c-1.989,2.313-4.41,4.333-7.278,5.06c-5.849,1.517-11.892,1.654-17.877,1.573c-4.909,0.143-9.823-0.634-14.522-2.157
				c-2.347-0.883-4.841-1.784-6.603-3.792c-0.635-2.617-0.142-5.452,1.151-7.752c5.164-10.114,13.467-17.978,22.712-23.411
				c3.355-2.138,7.028-3.811,9.913-6.732c-6.575,2.412-13.337,5.185-20.394,4.575c0.907-0.883,1.825-1.778,2.641-2.773
				c-3.486-1.038-7.096-0.771-10.662-0.951c-1.899-0.392-4.37-0.808-4.988-3.177c2.012,0.068,4.058,0.075,5.991-0.665
				c-0.272-2.866-2.035-5.135-3.486-7.41c-1.984-2.723-4.228-5.197-6.269-7.87c5.277,1.001,10.571,2.48,15.264,5.396
				c3.287,1.94,6.326,4.339,9.579,6.353c2.466,1.591,5.441,1.405,8.202,1.517c2.896-0.155,6.173-0.267,8.485-2.449
				c1.122-0.957,1.06-2.841,0.266-4.01c-1.241-1.921-3.038-3.289-4.5-4.986c2.398,0.584,4.869,1.318,6.892,2.928
				c1.377,1.169,1.309,3.264,1.638,4.961c1.304-0.417,2.828-0.653,3.701-1.94c1.258-1.43,0.714-3.543,0.765-5.321
				c-3.962-3.003-8.519-4.799-12.946-6.782c-15.043-6.465-30.885-10.512-45.673-17.711c-6.864-3.5-13.711-7.379-19.283-13.098
				c0.918,5.427,4.251,10.021,8.06,13.452c2.114,1.971,4.767,2.934,7.272,4.134c-3.985,2.437-8.644,2.114-13.037,1.865
				c-4.738-0.932-8.978-3.661-13.014-6.428c-1.961-1.305-3.69-2.99-5.186-4.886c0.816,1.529,1.496,3.177,2.539,4.557
				c1.44,1.871,3.333,3.233,4.892,4.992c-3.673-0.448-6.977-2.344-10.446-3.568c-2.93-1.075-5.9-2.07-8.961-2.598
				c-3.027-0.267-6.07-0.149-9.109-0.093c3.792,2.051,7.714,4.028,10.826,7.248c3.344,3.065,5.424,7.329,8.066,11.065
				c-1.292-0.131-2.596-0.155-3.86-0.454c-8.729-2.599-17.73-4.507-26.81-4.227c-4.852-0.106-9.709,0.224-14.556,0
				c1.23-1.125,2.811-1.573,4.296-2.138c7.136-2.561,14.675-4.246,22.219-3.581c2.114,0.149,4.2,0.609,6.326,0.709
				c-4.172-4.749-10.367-5.725-15.632-8.287c6.048-3.102,12.974-4.687,19.6-3.183c3.395,0.665,6.615,2.076,9.919,3.152
				c-3.486-3.332-5.968-7.795-7.402-12.588c-0.289-1.144,0-2.331,0.057-3.481c6.416,6.894,12.668,14.211,20.496,19.228
				c3.565,2.145,7.765,3.55,11.846,2.704c-1.768-1.828-3.684-3.512-5.186-5.632c-2.432-3.376-4.109-7.329-5.317-11.401
				C128.905,299.4,128.253,297.467,128.605,295.471z M164.376,338.974c1.967,3.612,4.495,6.813,6.841,10.127
				c2.194,2.947,5.895,3.152,9.086,3.487c1.876,0.062,4.189,0.553,5.487-1.343c-1.094-0.858-2.154-2.313-3.662-1.753
				c-1.995,0.622-4.155,0.286-5.883-0.976c-0.952-1.567-1.292-3.481-2.233-5.054C170.985,341.56,167.748,339.969,164.376,338.974z
				 M207.991,346.639c-1.785,1.89-4.024,3.077-6.156,4.395c-1.281,0.889-1.598,2.816-3.01,3.568
				c-2.267,1.467-4.523,2.959-6.802,4.401c-7.3,4.24-13.7,10.108-19.594,16.405c-3.01,3.313-5.804,7.155-6.966,11.73
				c-0.516,1.884,0.822,3.543,2.239,4.37c5.487,3.469,11.965,4.271,18.194,4.289c6.133-0.019,12.356-0.329,18.296-2.157
				c-6.445,0.466-12.634-1.828-18.648-4.059c-4.2-1.741-8.23-4.233-11.404-7.746c-0.839-0.653-0.544-1.815-0.34-2.717
				c1.326-2.717,4.121-3.941,6.688-4.725c13.093-3.289,26.646-3.935,40.011-2.76c2.834,0.46,5.385-1.287,7.72-2.804
				c3.219-2.244,6.45-4.55,9.177-7.503c-0.187-1.007-0.119-2.238-1.003-2.86c-6.853-5.955-15.236-9.176-23.46-12.079
				C211.364,345.862,209.221,344.917,207.991,346.639z"/>
		</g>
	</g>
	<path fill="#F6A11D" d="M52.137,343.562c6.717-5.085,14.612-8.162,22.729-9.02c10.741-1.225,22.06-1.1,32.161,3.562
		c4.5,2.207,8.751,5.191,12.13,9.157c-3.418,0.647-6.898,0.143-10.344,0.249c-5.249,0.106-10.531-0.218-15.752,0.435
		c-10.588,0.914-21.301,2.449-31.22,6.838c-11.007,4.756-21.873,9.984-33.294,13.477C35.428,359.004,43.125,350.338,52.137,343.562z
		"/>
	<path fill="#EF1827" d="M134.721,341.498c2.177-0.852,4.007-2.449,6.025-3.643c-1.36,3.382-4.937,4.227-6.909,6.944
		c1.185,2.362,3.713,2.456,5.878,2.319c-4.126,4.115-8.7,7.901-11.682,13.179c-1.185,2.194-2.233,4.501-2.896,6.95
		c-0.572,1.542,0.499,3.139,1.78,3.73c1.513,0.839,3.231,0.274,4.841,0.218l-0.334,1.144c-2.766,0.162-6.258,1.144-8.281-1.573
		c-1.428-1.131-1.247-3.208-0.969-4.874c2.375-6.813,7.504-11.743,12.124-16.735c-2.568-0.883-5.22-2.207-6.62-4.874
		c0.119-0.255,0.363-0.771,0.482-1.026C130.345,342.679,132.612,342.412,134.721,341.498z"/>
	<path fill="#F6A11D" d="M72.996,358.457c12.084-3.419,24.9-3.202,37.007-0.044c1.836,0.497,3.73,0.914,5.402,1.946
		c-2.46,0.814-5.033,0.802-7.561,1.082c-10.537,1.821-20.728,5.452-30.721,9.449c-7.754,3.003-14.59,8.2-21.011,13.714
		c-10.236,8.809-19.368,19.06-29.814,27.589c-4.37,3.506-8.746,7.112-13.671,9.623c0.283-3.121,1.287-6.086,2.131-9.057
		c3.18-10.636,7.964-20.881,15.049-29.037c3.866-4.42,8.723-7.541,13.445-10.73C52.551,366.818,62.402,361.379,72.996,358.457z"/>
	<path fill="#919398" d="M197.812,362.056c1.326-2.356,3.826-3.332,5.832-4.83C202.182,359.383,200.402,361.689,197.812,362.056z"/>
	<path fill="#EF1827" d="M127.823,382.086c0.459-3.394,1.23-6.956,3.338-9.617c-0.136,2.797-0.731,5.582-0.431,8.392
		c0.402,3.823,1.938,7.367,2.477,11.159c0.618,4.55-0.079,9.151-1.134,13.552c3.588-5.937,9.33-10.239,15.672-11.762
		c4.807-1.156,9.891-1.262,14.68,0.068c-2.143,1.424-4.727,1.498-7.057,2.356c-11.631,3.568-21.045,12.29-30.335,20.328
		c1.1-4.588,2.432-9.151,2.709-13.913C127.879,395.793,127.55,388.936,127.823,382.086z"/>
	<path fill="#F6A11D" d="M72.944,384.423c8.678-4.961,18.183-8.088,27.864-9.511c-4.994,3.363-9.777,7.161-13.813,11.849
		c-14.125,17.145-25.756,36.628-40.583,53.095c-8.4,9.549-18.96,16.803-30.415,21.024c3.571-13.011,9.25-25.314,16.301-36.472
		c5.923-9.511,13.87-17.151,21.612-24.816C59.834,393.953,65.973,388.445,72.944,384.423z"/>
	<path fill="#F6A11D" d="M99.329,385.38c4.143-3.351,8.621-6.428,13.637-7.895c-5.186,6.732-9.743,14.068-13.184,22.044
		c-6.853,15.914-11.166,33.128-19.481,48.277c-4.704,8.647-11.659,15.529-19.005,21.428c-9.488,7.422-20.456,12.644-31.956,14.851
		c-2.5,0.429-4.999,1.032-7.544,0.808c6.343-6.478,12.94-12.682,18.841-19.669c6.212-6.956,11.602-14.721,16.862-22.547
		c7.935-11.836,15.445-24.014,23.551-35.714C86.519,399.193,92.086,391.286,99.329,385.38z"/>
	<path fill="#F6A11D" d="M113.074,393.605c0.839-1.243,1.808-2.375,2.885-3.369c-1.213,9.051-2.426,18.115-3.01,27.247
		c-1.139,15.554-1.842,31.275-5.396,46.443c-2.834,12.775-10.463,24.145-20.513,31.219c-0.193-7.13-0.181-14.273,0.057-21.397
		c0.578-3.17,0.249-6.428,0.777-9.604c1.213-13.44,3.605-26.905,8.474-39.375C100.712,413.672,106.454,403.259,113.074,393.605z"/>
	<g>
		<g>
			<path fill="#FCFCFC" d="M260.39,353.476c4.763-5.804,11.844-8.56,18.616-8.241c13.073,0.083,26.146-0.173,39.213,0.132
				c0.024,3.961,0.024,7.93,0.035,11.891c0.148,1.6-1.472,2.41-2.606,2.375c-12.612,0.048-25.23-0.007-37.842,0.021
				c-1.974,0.055-4.066-0.145-5.851,1.046c-2.5,1.537-4.899,4.232-5.041,7.736c14.479,0.277,28.971-0.132,43.45,0.208
				c0.23,4.287,0.355,8.629-0.112,12.909c-2.317,0.519-4.681,0.346-7.021,0.36c-12.316-0.007-24.633,0-36.949-0.007
				c-0.047,2.916-0.071,5.831-0.296,8.74c17.369,0.111,34.739-0.125,52.102,0.118c0.272,4.294,0.136,8.615,0.118,12.916
				c0.03,1.524-1.578,1.731-2.559,1.669c-20.756-0.048-41.512,0.035-62.267-0.042c-0.065-11.42-0.148-22.841,0.053-34.254
				C254.226,364.613,256.353,358.102,260.39,353.476z"/>
			<g>
				<path fill="#FCFCFC" d="M330.187,355.637c4.616-6.995,12.322-10.575,19.745-10.395c11.619-0.021,23.238,0,34.857-0.007
					c2.281-0.007,4.574-0.09,6.85,0.187c0.124,18.027,0,36.062,0.065,54.096c0.018,1.78-0.059,3.567-0.266,5.333
					c-4.119,0.187-8.238,0.076-12.364,0.076c0.024-7.667-0.024-15.333,0.035-23c-13.77-0.048-27.54,0.014-41.311-0.035
					c-0.124,7.258,0.041,14.523-0.077,21.781c0.071,0.983-0.786,1.718-1.572,1.621c-3.593,0.145-7.187-0.042-10.78,0.076
					c-0.059-10.499-0.006-20.992-0.03-31.484C325.057,367.397,326.948,360.873,330.187,355.637z M343.195,361.773
					c-2.423,0.97-4.001,3.726-4.314,6.628c11.755,0.187,23.51,0.014,35.265,0.09c1.655,0.042,3.316-0.055,4.953-0.36
					c-0.095-2.763-0.083-5.527-0.071-8.29c-9.119-0.097-18.244-0.055-27.363-0.014C348.756,359.702,345.919,360.7,343.195,361.773z"
					/>
			</g>
			<path fill="#FCFCFC" d="M418.162,346.384c4.285-1.711,8.871-0.99,13.315-1.15c12.169,0.139,24.355-0.284,36.512,0.215
				c-0.065,4.335-0.047,8.671,0,12.999c-0.887,0.526-1.749,1.281-2.795,1.191c-14.208,0.062-28.421-0.069-42.629,0.062
				c-3.215-0.152-6.796,1.738-7.967,5.457c-0.668,2.355-1.265,4.793-1.223,7.3c-0.006,6.053,0.012,12.106,0,18.159
				c10.573,0.145,21.152-0.048,31.725,0.097c4.048-0.145,8.688-3.608,8.64-8.823c-2.417,0.007-4.834,0.028-7.252,0.007
				c0.083-4.425-0.378-8.899,0.29-13.276c7.057-0.222,14.119-0.069,21.175-0.083c0.083,2.722,0.053,5.471-0.579,8.117
				c-0.81,7.133-2.246,14.558-6.135,20.327c-3.765,5.457-9.899,7.251-15.543,8.304c-15.035,0.069-30.076,0.104-45.111-0.014
				c-0.077-9.772,0-19.537-0.041-29.309c-0.207-6.261,1.407-12.445,3.847-17.965C407.519,352.299,412.471,347.859,418.162,346.384z"
				/>
			<path fill="#FCFCFC" d="M476.689,346.066c1.022-0.519,2.092-0.949,3.233-0.845c3.073,0.076,6.164-0.201,9.225,0.27
				c0.177,15.063-0.018,30.126,0.1,45.19c7.931-0.021,15.862-0.014,23.794-0.014c2.955-0.014,6.046,0.575,8.853-0.845
				c3.44-1.191,5.301-5.021,7.163-8.283c3.995-0.042,7.996-0.138,11.991,0.069c-0.632,8.512-5.354,16.497-11.956,20.16
				c-3.25,1.572-6.655,2.888-10.124,3.525c-14.095,0.083-28.191,0.035-42.286,0.028C476.63,385.569,476.624,365.818,476.689,346.066
				z"/>
			<path fill="#FCFCFC" d="M559.038,348.808c2.559-1.828,5.544-2.452,8.398-3.345c8.451-0.485,16.926-0.111,25.383-0.229
				c6.389,0.118,12.789-0.263,19.166,0.222c0.012,4.384,0.024,8.775-0.006,13.166c-1.04,0.436-2.051,1.087-3.185,1.025
				c-13.02,0.028-26.039-0.048-39.059,0.035c-4.356-0.367-8.948,3.56-9.574,8.692c14.574,0.395,29.16-0.069,43.734,0.235
				c0.278,3.809,0.177,7.639,0.13,11.455c0.154,1.551-1.342,1.884-2.334,1.835c-14.083,0.09-28.173-0.118-42.25,0.097
				c0.13,2.881,0.1,5.776,0.03,8.657c14.273,0.028,28.539,0.007,42.806,0.014c3.233,0.035,6.489-0.187,9.704,0.339
				c0.041,4.509-0.012,9.017,0.041,13.526c-1.022,0.512-2.086,0.928-3.203,0.824c-20.732-0.09-41.47,0.083-62.202-0.09
				c-0.053-9.537,0.018-19.073-0.035-28.603c0.071-7.182,1.418-14.613,5.13-20.472C553.779,353.282,556.125,350.533,559.038,348.808
				z"/>
		</g>
	</g>
	<path fill="#EF1827" d="M134.817,416.27c3.922-2.673,8.581-3.32,13.076-3.823c12.764,0.106,25.54-0.205,38.299,0.162
		c0.147,4.078,0.13,8.168,0.062,12.253c0.074,1.492-1.581,1.71-2.59,1.66c-12.113-0.019-24.225,0.019-36.332-0.019
		c-4.024-0.05-9.058,1.79-9.942,6.67c13.66,0.168,27.32,0.012,40.98,0.075c0.153,1.069,0.572,2.138,0.391,3.239
		c-0.414,3.189-0.034,6.428-0.374,9.636c-1.264,0.224-2.545,0.317-3.815,0.298c-12.645-0.05-25.285,0.031-37.919-0.037
		c-0.091,2.53-0.085,5.06-0.045,7.59c14.164,0.006,28.323,0,42.488,0c2.375,0.012,4.767-0.093,7.142,0.168
		c0.091,4.177,0.062,8.361,0.023,12.545c-1.06,0.168-2.12,0.305-3.18,0.311c-19.781-0.006-39.563-0.025-59.344,0.006
		c0.057-11.314-0.057-22.628,0.057-33.936C125.096,426.129,129.024,419.627,134.817,416.27z"/>
	<path fill="#EF1827" d="M189.729,412.459c5.651,0.093,11.336-0.242,16.976,0.155c3.843,3.693,7.125,8.069,11.251,11.401
		c2.59,2.661,5.192,5.309,7.697,8.063c2.579-2.4,5.26-4.675,7.601-7.367c2.97-3.4,6.581-6.018,9.556-9.418
		c1.287-1.156,2.33-3.189,4.251-2.853c5.186,0.05,10.373-0.087,15.553,0.075c-0.215,2.064-2.296,2.598-3.378,3.997
		c-3.208,3.562-7.017,6.366-10.22,9.934c-4.886,4.308-9.335,9.2-14.516,13.098c4.098,3.519,8.247,7.006,11.886,11.109
		c1.842,2.157,4.279,3.55,6.104,5.738c3.151,3.686,7.215,6.285,10.163,10.195c-5.345,0.858-10.786,0.186-16.165,0.417
		c-1.785,0.292-2.97-1.386-4.211-2.474c-4.16-4.364-8.417-8.616-12.453-13.123c-1.207-1.2-2.409-2.779-4.053-3.146
		c-2.04,1.417-3.537,3.574-5.424,5.197c-3.781,3.083-6.836,7.074-10.548,10.232c-1.111,0.889-2.012,2.033-3.061,2.99
		c-1.026,0.485-2.188,0.242-3.265,0.323c-4.733-0.093-9.471,0.131-14.193-0.143c2.398-3.276,5.906-5.241,8.468-8.355
		c6.445-5.986,12.64-12.309,19.3-18.015c-2.25-2.306-4.96-3.997-7.051-6.496c-2.171-2.636-5.005-4.426-7.295-6.919
		c-2.182-2.406-4.79-4.277-6.926-6.739c-1.865-2.126-4.149-3.693-6.173-5.613C189.451,413.97,189.667,413.205,189.729,412.459z"/>
	<path fill="#EF1827" d="M267.937,412.665c5.895-0.41,11.812-0.081,17.718-0.186c15.485,0.012,30.976-0.025,46.461,0.012
		c1.043-0.242,1.927,0.821,1.763,1.952c-0.142,7.018,0.663,14.54-2.466,20.968c-3.441,7.628-11.654,11.457-19.118,11.003
		c-8.326-0.012-16.641-0.012-24.962,0.006c-0.93,0.081-1.78-0.286-2.613-0.634c0.176-3.599-0.125-7.217,0.153-10.81
		c0.459-0.802,1.026-1.809,2.029-1.691c9.415-0.149,18.841,0.112,28.255-0.118c3.322,0.068,5.385-3.407,6.122-6.571
		c-13.547-0.193-27.099,0-40.651-0.099c-0.176,13.409,0.079,26.818-0.13,40.227c-4.245,0.553-8.536,0.131-12.798,0.274
		c0.006-10.27,0-20.546,0-30.815C267.84,428.349,267.404,420.479,267.937,412.665z"/>
	<path fill="#EF1827" d="M339.813,415.648c-0.187-1.598,0.816-3.531,2.483-3.189c14.748-0.006,29.502,0,44.25,0
		c6.581,0.081,13.173-0.174,19.747,0.137c0.187,4.762,0.13,9.53,0.062,14.292c-0.737,4.936-2.256,10.077-5.832,13.434
		c-2.919,3.568-7.283,4.793-11.296,6.129c3.679,4.401,7.618,8.541,11.234,13.011c1.944,2.493,4.279,4.575,6.173,7.124
		c-5.181,0.864-10.463,0.162-15.684,0.423c-6.161-6.751-12.402-13.434-18.376-20.384c-2.67-0.51-5.43-0.087-8.128-0.218
		c-2.398-0.155-4.92,0.479-7.181-0.597c0.142-3.425-0.028-6.857,0.074-10.282c-0.057-0.901,0.669-1.517,1.026-2.244
		c9.205-0.099,18.415-0.012,27.62-0.044c1.468-0.068,3.072-0.019,4.359-0.97c1.95-1.119,2.664-3.568,3.446-5.663
		c-13.535-0.23-27.082,0-40.617-0.118c-0.176,13.372,0.045,26.743-0.113,40.115c-4.285,1.343-8.78,0.603-13.173,0.746
		C339.717,450.119,339.87,432.881,339.813,415.648z"/>
	<path fill="#EF1827" d="M429.822,413.926c5.407-2.114,11.183-1.361,16.806-1.486c10.032,0.037,20.071-0.075,30.109,0.062
		c0.295,4.376,0.102,8.771,0.119,13.16c-1.774,1.2-3.888,0.814-5.855,0.858c-11.342-0.019-22.684,0.019-34.025-0.019
		c-4.087-0.05-8.326,2.257-9.806,6.645c13.96,0.292,27.932-0.131,41.893,0.218c0.499,4.028,0.147,8.106,0.232,12.159
		c-0.896,0.448-1.791,1.001-2.8,0.889c-13.343-0.012-26.685,0-40.028-0.012c-0.023,2.337-0.04,4.669-0.006,7.006
		c15.797-0.087,31.599-0.012,47.396-0.044c1.06-0.099,2.023,0.448,2.998,0.87c0.04,4.171,0.062,8.343-0.023,12.514
		c-6.462,0.528-12.957,0.106-19.436,0.236c-14.658,0-29.31,0-43.967,0c-0.011-9.02,0.006-18.046-0.006-27.067
		C412.721,428.579,419.682,416.935,429.822,413.926z"/>
	<path fill="#EF1827" d="M499.771,413.013c3.01-0.827,6.127-0.541,9.205-0.578c10.956,0.019,21.918-0.031,32.875,0.025
		c0.811-0.137,1.185,0.926,1.462,1.585c0.153,3.015,0.034,6.036,0.062,9.051c0.091,1.61-0.986,3.599-2.63,3.4
		c-13.405,0.068-26.81-0.025-40.209,0.043c-2.857,0.479-5.827,3.158-5.623,6.565c16.137,0.367,32.297-0.062,48.439,0.211
		c0.414,4.457,0.181,8.952,0.17,13.421c-0.589,2.99-0.692,6.167-2.075,8.902c-2.59,6.148-8.321,10.251-14.312,11.308
		c-15.037,0.093-30.08,0.012-45.118,0.037c0-4.078-0.04-8.156,0.034-12.228c0.969-0.591,1.893-1.523,3.095-1.392
		c12.662-0.006,25.325,0,37.987,0c1.768-0.112,3.849-0.062,5.158-1.61c1.462-1.337,1.95-3.438,2.692-5.272
		c-16.052-0.186-32.11,0.006-48.161-0.099c-0.198-0.186-0.595-0.566-0.794-0.752c-0.017-4.606-0.091-9.219,0.051-13.819
		c0.828-4.519,2.398-9.057,5.209-12.557C490.634,415.686,495.118,413.454,499.771,413.013z"/>
	<path fill="#EF1827" d="M567.862,413.093c4.109-1.063,8.349-0.541,12.532-0.659c10.316,0.087,20.643-0.174,30.953,0.137
		c0.102,4.109,0.074,8.218,0.057,12.327c0.045,1.125-1.224,1.672-2.08,1.604c-13.235,0.037-26.47,0.006-39.699,0.006
		c-1.74-0.031-3.339,0.964-4.705,2.039c-0.918,1.436-1.536,3.071-2.216,4.65c16.035,0.081,32.07,0.05,48.11,0.012
		c0.425,0.441,0.862,0.883,1.321,1.318c-0.011,3.183,0.278,6.409-0.153,9.573c-0.561,1.846-0.589,3.792-0.612,5.719
		c-0.68,4.432-2.602,8.622-5.526,11.786c-3.781,3.369-8.61,5.701-13.547,5.39c-13.898-0.025-27.796,0-41.694-0.012
		c0.057-4.041-0.13-8.088,0.074-12.122c0.153-1.299,1.491-1.591,2.494-1.504c9.828,0.006,19.662,0.006,29.491,0.006
		c4.268-0.18,8.621,0.479,12.827-0.584c2.25-1.162,3.078-3.805,3.458-6.316c-15.842-0.162-31.69,0.031-47.532-0.093
		c-1.247-0.087-0.703-1.84-0.833-2.704c0.085-4.358-0.091-8.722,0.085-13.073c1.049-4.83,2.868-9.847,6.598-12.943
		C560.369,415.213,563.962,413.199,567.862,413.093z"/>
</g>
</svg>
