<?xml version="1.0" encoding="utf-8"?>
<!-- Generator: Adobe Illustrator 17.0.0, SVG Export Plug-In . SVG Version: 6.00 Build 0)  -->
<!DOCTYPE svg PUBLIC "-//W3C//DTD SVG 1.1//EN" "http://www.w3.org/Graphics/SVG/1.1/DTD/svg11.dtd">
<svg version="1.1" id="Layer_1" xmlns="http://www.w3.org/2000/svg" xmlns:xlink="http://www.w3.org/1999/xlink" x="0px" y="0px"
	 width="300px" height="62px" viewBox="0 0 300 62" enable-background="new 0 0 300 62" xml:space="preserve">
<path fill="#00844E" d="M292.9,59.2H7c-2.8,0-5.1-2.3-5.1-5.1V7.9C1.9,5,4.2,2.8,7,2.8h285.9c2.8,0,5.1,2.3,5.1,5.1v46.2
	C298,56.9,295.7,59.2,292.9,59.2z"/>
<g>
	<path fill="#FFFFFF" d="M24.8,18.4c1.5,2.5,2.9,5.1,4.4,7.6c0,0,0,0-0.1,0.1c-0.7,0.4-1,1-1.2,1.8c-0.1,0.6-0.2,1.2-0.1,1.8
		c0.2,1.7,0.8,3.3,1.7,4.8c0.6,1,1.3,2,2.2,2.8c0.5,0.5,1.1,0.9,1.8,1.1c0.9,0.3,1.7,0.3,2.6-0.2c1.5,2.5,2.9,5,4.4,7.6
		c0,0,0,0,0,0.1c-0.6,0.3-1.2,0.6-1.8,0.9c-1.4,0.5-2.7,0.4-4-0.3c-0.9-0.5-1.8-1.2-2.6-1.9c-1.4-1.2-2.6-2.6-3.8-4.1
		c-2.3-3-4.1-6.3-5.5-9.8c-0.5-1.4-0.9-2.8-1.2-4.2c-0.2-1.1-0.4-2.2-0.3-3.3c0-0.8,0.2-1.6,0.6-2.3c0.2-0.3,0.3-0.5,0.5-0.7
		C23.1,19.4,23.9,18.9,24.8,18.4z"/>
	<path fill="#FFFFFF" d="M33.6,23.7c0,0.4-0.2,0.6-0.5,0.8c-0.2,0.1-0.4,0.2-0.6,0.4c-0.5,0.3-1,0.6-1.5,0.9
		c-0.2,0.1-0.5,0.2-0.8,0.1s-0.5-0.2-0.6-0.5c-0.2-0.4-0.5-0.9-0.8-1.3c-1.1-1.9-2.2-3.8-3.3-5.7c-0.1-0.2-0.2-0.5-0.2-0.8
		c0.1-0.3,0.2-0.5,0.5-0.7c0.5-0.3,1-0.6,1.6-0.9c0.2-0.1,0.3-0.2,0.5-0.3c0.6-0.4,1.2-0.1,1.5,0.4c0.7,1.2,1.4,2.4,2.1,3.6
		c0.7,1.1,1.3,2.3,2,3.4C33.6,23.3,33.7,23.5,33.6,23.7z"/>
	<path fill="#FFFFFF" d="M44.9,43.3c0,0.4-0.2,0.7-0.5,0.8c-0.3,0.2-0.6,0.3-0.8,0.5c-0.4,0.3-0.9,0.5-1.3,0.8
		c-0.4,0.2-0.9,0.2-1.2-0.2C41,45.1,41,45,40.9,44.9c-1.4-2.4-2.7-4.7-4.1-7.1c-0.3-0.5-0.2-1.1,0.4-1.4c0.7-0.4,1.4-0.8,2.1-1.2
		c0.3-0.1,0.5-0.2,0.8-0.1c0.3,0.1,0.4,0.3,0.6,0.5c0.4,0.7,0.8,1.3,1.1,2c1,1.7,1.9,3.4,2.9,5C44.9,42.8,45,43,44.9,43.3z"/>
</g>
<g>
	<path fill="#FFFFFF" d="M71.8,17.4V26l-0.6-0.5c-0.2-1-0.8-2-1.6-3.1c-0.5,0.7-1.2,1.1-2,1.1c-1.2,0-2.2-0.7-3.2-2.2
		c-0.7-1.2-1.2-2.5-1.5-4l0.9,0.3c0.5,1.3,0.9,2.2,1.3,2.8c0.6,0.9,1.4,1.3,2.4,1.3c0.4,0,0.7-0.1,1-0.3c0.3-0.2,0.4-0.5,0.4-0.9
		c0-0.2,0-0.5-0.1-0.8s-0.3-0.5-0.4-0.6c-0.2,0.6-0.6,0.8-1.2,0.8c-0.4,0-0.7-0.1-1-0.4c-0.3-0.2-0.5-0.6-0.5-0.9
		c0-0.4,0.2-0.8,0.6-1c0.3-0.2,0.7-0.3,1.1-0.3c0.8,0,1.5,0.3,2.1,1c0.6,0.6,0.9,1.4,0.9,2.2c0,0.1,0,0.3,0,0.4l0.5,1v-4.6h-7.8
		l-1.2-1.1h10.6l1.2,1.1h-1.9V17.4z"/>
	<path fill="#FFFFFF" d="M74.1,17.1c0-0.7-0.1-1.6-0.1-2.5l0.6,0.5c0.1,0.5,0.2,0.9,0.4,1.1h1.2l1.1,1.2H75v9l-1-1.3v-6.3
		c0-0.4-0.1-0.8-0.4-1c-0.3-0.3-0.6-0.4-1-0.4c-0.1,0-0.1,0-0.2,0l-1.2-1.1c0.5-0.1,0.8-0.1,1.1-0.1C73.1,16.2,73.7,16.5,74.1,17.1z
		"/>
	<path fill="#FFFFFF" d="M80.2,22.6c-0.1,0.1-0.2,0.2-0.5,0.4c-0.3,0.2-0.6,0.3-1,0.3c-0.6,0-1.1-0.3-1.4-0.8c0-0.1,0-0.2-0.1-0.4
		c0-0.2-0.1-0.3-0.1-0.4c0-0.5,0.2-0.9,0.6-1.2c0.3-0.3,0.8-0.4,1.3-0.4c0.2,0,0.3,0,0.4,0c-0.1-0.5-0.3-1-0.7-1.2
		c-0.2-0.2-0.6-0.3-1.2-0.4c-0.5-0.1-0.8-0.2-0.9-0.4c-0.2-0.1-0.3-0.3-0.4-0.4c-0.1-0.2-0.2-0.4-0.3-0.4c-0.2-0.2-0.6-0.6-1.1-1.1
		H84l1.2,1.2h-2.4v8.7l-0.7-0.7c-0.2-1-0.5-1.7-0.9-2C80.8,23,80.5,22.7,80.2,22.6z M81.8,17.4h-3.2c1.1,0.9,1.7,1.6,1.9,2.3
		c0.2,0.7,0.3,1.2,0.2,1.6c0.3,0.3,0.7,0.7,1.1,1.2V17.4z"/>
	<path fill="#FFFFFF" d="M85.3,17.1c0-0.7-0.1-1.6-0.1-2.5l0.6,0.5c0.1,0.5,0.2,0.9,0.4,1.1h1.2l1.1,1.2h-2.3v9l-1.1-1.2v-6.3
		c0-0.4-0.1-0.8-0.4-1c-0.3-0.3-0.6-0.4-1-0.4c-0.1,0-0.1,0-0.2,0l-1.2-1.1c0.5-0.1,0.8-0.1,1.1-0.1C84.3,16.2,84.9,16.5,85.3,17.1z
		"/>
	<path fill="#FFFFFF" d="M90.4,24.6c-0.1-0.4-0.2-0.7-0.2-0.7c0-0.3,0.1-0.6,0.4-0.8c0.2-0.2,0.5-0.3,0.8-0.3c0.2,0,0.4,0.1,0.6,0.2
		c0.4,0.2,0.6,0.6,0.6,1s-0.2,0.8-0.5,1.1c-0.3,0.3-0.7,0.4-1.2,0.4c-1,0-1.7-0.5-2.3-1.5c-0.5-0.8-0.7-1.7-0.7-2.7
		c0-1.4,0.5-2.7,1.5-4h-2.2L86,16.2h6.3l1.1,1.1c-0.6,0-1.2,0.1-1.7,0.3c-1,0.4-1.7,1-2.1,1.8C89.2,20.1,89,21,89,22.2
		C89.2,23.3,89.6,24.1,90.4,24.6z"/>
	<path fill="#FFFFFF" d="M94.2,17.4v3c0.3-0.3,0.7-0.6,1.2-1.1c0.6-0.5,1.4-0.9,2.4-1.3l1.6,1.2c-0.8,1.5-1.2,2.8-1.2,4
		c0,0.1,0,0.2,0,0.4s0,0.3,0,0.4c0,0.2,0.1,0.8,0.3,2l-0.9-0.5c-0.3-1.5-0.5-2.7-0.5-3.5c0-0.7,0.1-1.3,0.2-1.9
		c-1.4,0.6-2.4,1.7-3,3.2L93,22v-4.7h-0.7l-1.2-1.1h8.9l1.2,1.1h-7V17.4z"/>
	<path fill="#FFFFFF" d="M106,17.4v8.5c-0.3-0.2-0.6-0.5-0.8-0.8c-0.2-0.4-0.4-0.7-0.5-1c-0.3-0.6-0.8-1.1-1.5-1.5s-1.4-0.6-2.1-0.6
		l-1.2-1.7c1.7-1.2,3.4-2.1,5-2.6v-0.3h-5l-1.2-1.1h8.3l1.2,1.1H106z M102.6,25.1c-0.3,0-0.5-0.1-0.7-0.3s-0.3-0.5-0.3-0.7
		c0-0.3,0.1-0.5,0.3-0.7c0.2-0.2,0.4-0.3,0.7-0.3c0.3,0,0.5,0.1,0.7,0.3c0.2,0.2,0.3,0.4,0.3,0.7c0,0.3-0.1,0.5-0.3,0.7
		C103.1,25,102.9,25.1,102.6,25.1z M104.8,19.2c-0.9,0.3-1.8,0.8-2.7,1.4c1.2,0.5,2.1,1.3,2.7,2.3V19.2z"/>
	<path fill="#FFFFFF" d="M118.8,17.4v8.8l-1.1-1.3V21c0-0.1-0.1-0.3-0.4-0.5c-0.2-0.2-0.5-0.3-0.6-0.3c-0.3,0-0.7,0.4-1.2,1.2
		c-0.3,0.5-0.5,0.8-0.6,0.8c-0.3,0.4-0.5,0.6-0.7,0.6c-0.1,0-0.2,0-0.3,0c-0.4,0-0.6-0.1-0.7-0.2c-0.2-0.1-0.5-0.3-0.8-0.8
		c0-0.1-0.2-0.4-0.6-1l0.9-0.8c0,0.3,0.1,0.6,0.3,0.9c0.1,0.3,0.3,0.4,0.4,0.4c0.2,0,0.6-0.5,1.3-1.5c-0.1-0.5-0.2-0.9-0.3-1.1
		c-0.2-0.3-0.5-0.5-1-0.5s-0.9,0-1-0.1c-0.3-0.1-0.5-0.3-0.8-0.7c-0.1-0.1-0.5-0.4-1.3-1.1h9.7l1.2,1.1H118.8z M115.3,19
		c0.5-0.3,0.8-0.5,0.9-0.5c0.4,0,0.9,0.4,1.4,1.1v-2.3h-3.1C115.1,17.9,115.4,18.4,115.3,19z"/>
	<path fill="#FFFFFF" d="M121.1,17.1c0-0.7-0.1-1.6-0.1-2.5l0.6,0.5c0.1,0.5,0.2,0.9,0.4,1.1h1.2l1.1,1.2H122v9l-1.1-1.2v-6.3
		c0-0.4-0.1-0.8-0.4-1c-0.3-0.3-0.6-0.4-1-0.4c-0.1,0-0.1,0-0.2,0l-1.2-1.1c0.5-0.1,0.8-0.1,1.1-0.1
		C120.1,16.2,120.7,16.5,121.1,17.1z"/>
	<path fill="#FFFFFF" d="M130.7,14.8c-1.1-0.8-2.1-1.2-3.2-1.2c-1,0-1.9,0.5-2.6,1.6c-0.1,0.2-0.2,0.4-0.2,0.4
		c0,0.1,0.1,0.3,0.2,0.6h1.5l1.2,1.1h-2.3V26l-1.2-1.1v-7.5H123l-1.2-1.1h2.1c-0.4-0.4-0.6-0.7-0.6-1s0.1-0.6,0.2-0.8
		c0.8-1.4,1.9-2.1,3.1-2.1c1.7,0,3.4,0.8,5,2.5L132,16L130.7,14.8z"/>
	<path fill="#FFFFFF" d="M126.3,17.4l-1.2-1.1h10.1l1.2,1.1H126.3z M131.4,19.6c0.2-0.1,0.5-0.4,0.8-0.7c0.3-0.3,0.5-0.6,0.6-0.9
		l0.1-0.1c0.3,0,0.8,0.4,1.3,1.2c0.5,0.8,0.8,1.4,0.8,1.8c0,1-0.3,1.9-0.9,2.6c-0.7,0.8-1.5,1.1-2.5,1.1c-1.4,0-2.6-0.8-3.6-2.5
		c-0.4-0.8-1-2.2-1.7-4.3l0.9,0.3c0.4,1.3,0.9,2.4,1.6,3.2c0.8,1,1.8,1.6,2.9,1.6c0.5,0,1-0.2,1.4-0.6c0.5-0.4,0.7-0.9,0.7-1.4
		c0-0.6-0.1-0.9-0.2-1c-0.1,0.1-0.2,0.2-0.4,0.4c-0.5,0.6-1.2,0.9-2.2,0.9c-0.6,0-1-0.2-1.5-0.5c-0.4-0.3-0.6-0.8-0.6-1.4
		c0-0.4,0.1-0.8,0.4-1.1s0.6-0.4,1.1-0.4c0.4,0,0.7,0.1,0.9,0.3c0.2,0.2,0.4,0.5,0.4,0.8C131.6,19.2,131.5,19.4,131.4,19.6z"/>
	<path fill="#FFFFFF" d="M132.9,15.9h-2.6l5.2-3.9l1.1,0.1L132.9,15.9z"/>
	<path fill="#FFFFFF" d="M142.6,17.4v8.8l-1.1-1.3V21c0-0.1-0.1-0.3-0.4-0.5c-0.2-0.2-0.5-0.3-0.6-0.3c-0.3,0-0.7,0.4-1.2,1.2
		c-0.3,0.5-0.5,0.8-0.6,0.8c-0.3,0.4-0.5,0.6-0.7,0.6c-0.1,0-0.2,0-0.3,0c-0.4,0-0.6-0.1-0.7-0.2c-0.2-0.1-0.5-0.3-0.8-0.8
		c0-0.1-0.2-0.4-0.6-1l0.9-0.8c0,0.3,0.1,0.6,0.3,0.9c0.1,0.3,0.3,0.4,0.4,0.4c0.2,0,0.6-0.5,1.3-1.5c-0.1-0.5-0.2-0.9-0.3-1.1
		c-0.2-0.3-0.5-0.5-1-0.5s-0.9,0-1-0.1c-0.3-0.1-0.5-0.3-0.8-0.7c-0.1-0.1-0.5-0.4-1.3-1.1h9.7l1.2,1.1H142.6z M139.1,19
		c0.5-0.3,0.8-0.5,0.9-0.5c0.4,0,0.9,0.4,1.4,1.1v-2.3h-3.1C138.9,17.9,139.1,18.4,139.1,19z"/>
	<path fill="#FFFFFF" d="M155.5,17.4v8.8l-1.1-1.3V21c0-0.1-0.1-0.3-0.4-0.5c-0.3-0.2-0.5-0.3-0.6-0.3c-0.3,0-0.7,0.4-1.2,1.2
		c-0.3,0.5-0.5,0.8-0.6,0.8c-0.3,0.4-0.5,0.6-0.7,0.6c-0.1,0-0.2,0-0.3,0c-0.4,0-0.6-0.1-0.7-0.2c-0.2-0.1-0.5-0.3-0.8-0.8
		c0-0.1-0.2-0.4-0.6-1l0.9-0.8c0,0.3,0.1,0.6,0.3,0.9c0.1,0.3,0.3,0.4,0.4,0.4c0.2,0,0.6-0.5,1.3-1.5c-0.1-0.5-0.2-0.9-0.3-1.1
		c-0.2-0.3-0.5-0.5-1-0.5s-0.9,0-1-0.1c-0.3-0.1-0.5-0.3-0.8-0.7c-0.1-0.1-0.5-0.4-1.3-1.1h9.7l1.2,1.1H155.5z M152,19
		c0.5-0.3,0.8-0.5,0.9-0.5c0.4,0,0.9,0.4,1.4,1.1v-2.3h-3.1C151.8,17.9,152,18.4,152,19z"/>
	<path fill="#FFFFFF" d="M159.4,20c0,0.3-0.2,0.5-0.4,0.6c-0.2,0.2-0.5,0.2-0.8,0.2s-0.6-0.1-0.8-0.4s-0.3-0.5-0.3-0.8
		c0-0.5,0.3-0.9,0.9-1.1c0,0,0.1,0,0.2,0l0,0c0-0.2-0.1-0.5-0.1-0.7c-0.1-0.3-0.2-0.5-0.4-0.5h-1.3l-1.2-1.1h8.8l1.1,1.1h-2.3
		c0.3,0.4,0.4,0.8,0.4,1.3c0,0.6-0.1,1.1-0.4,1.6c-0.3,0.6-0.8,0.9-1.4,0.9C160.9,21.1,160.2,20.8,159.4,20z M161.7,17.4H159
		l0.3,0.6c0,0.1,0,0.3,0.1,0.4c0.2,0.3,0.5,0.5,0.9,0.8s0.7,0.4,1,0.4c0.4,0,0.6-0.1,0.7-0.2c0.1-0.1,0.1-0.4,0.1-0.8
		C162.1,17.8,162,17.4,161.7,17.4z"/>
	<path fill="#FFFFFF" d="M168.9,18.6c-0.1-1.1-0.2-2.4-0.2-3.8l0.7,0.5l0.1,0.1c0,0.3,0.2,0.6,0.4,0.7c0.1,0,0.3,0,0.4,0
		c0.3,0,0.5,0,0.6,0l1.1,1.1h-2.2V26c-0.3-0.3-0.7-0.7-1.3-1.2l0.1-4.3c-0.1-0.4-0.2-0.6-0.3-0.7c-0.1-0.3-0.3-0.5-0.5-0.7l-2.8,2.8
		l-1.5-0.6c0.2-0.2,0.4-0.4,0.6-0.6c0.3-0.3,0.4-0.5,0.4-0.7c0-0.5-0.1-0.7-0.3-0.7c-0.1,0-0.2,0-0.3,0l0,0
		c-0.3,0.2-0.6,0.3-0.9,0.3c-0.2,0-0.4-0.1-0.5-0.3c-0.2-0.2-0.2-0.4-0.2-0.6s0.1-0.3,0.2-0.5c0.8-1.3,1.9-2,3.2-2
		c0.7,0,1.3,0.2,1.9,0.7C168.2,17.4,168.6,17.9,168.9,18.6z M164.5,18.3c0.3,0,0.5,0.2,0.7,0.4c0.2,0.2,0.3,0.5,0.4,0.8l1.5-1.5
		c-0.3-0.3-0.6-0.4-1-0.4C165.4,17.6,164.8,17.8,164.5,18.3z"/>
	<path fill="#FFFFFF" d="M173.8,24.6c-0.1-0.4-0.2-0.7-0.2-0.7c0-0.3,0.1-0.6,0.4-0.8c0.2-0.2,0.5-0.3,0.8-0.3
		c0.2,0,0.4,0.1,0.6,0.2c0.4,0.2,0.6,0.6,0.6,1s-0.2,0.8-0.5,1.1c-0.3,0.3-0.7,0.4-1.2,0.4c-1,0-1.7-0.5-2.3-1.5
		c-0.5-0.8-0.7-1.7-0.7-2.7c0-1.4,0.5-2.7,1.5-4h-2.2l-1.2-1.1h6.3l1.1,1.1c-0.6,0-1.2,0.1-1.7,0.3c-1,0.4-1.7,1-2.1,1.8
		c-0.4,0.7-0.6,1.6-0.6,2.8C172.6,23.3,173,24.1,173.8,24.6z"/>
	<path fill="#FFFFFF" d="M183.6,20.9c-0.1-0.5-0.3-0.9-0.7-1.2c-0.4-0.3-0.9-0.5-1.4-0.5h-0.1V26l-0.6-0.6c-0.2-0.5-0.3-0.9-0.3-1
		c-0.1-0.2-0.3-0.5-0.6-0.9c-0.8-1-1.7-1.5-2.8-1.6l-1.3-1.6c1.5-1.2,3-2.1,4.5-2.6v-0.4h-4.9l-1.2-1.1H185l1.1,1.1h-4.7v0.3
		c0.8,0,1.6,0.4,2.2,1.2c0.6,0.7,0.9,1.5,0.9,2.3c0,0.5-0.1,0.9-0.4,1.2c-0.3,0.4-0.7,0.6-1.1,0.6c-0.3,0-0.6-0.1-0.9-0.3
		c-0.3-0.2-0.4-0.5-0.4-0.8c0-0.4,0.2-0.7,0.5-1c0.2-0.1,0.4-0.1,0.6-0.1C183.2,20.6,183.4,20.7,183.6,20.9z M180.3,19.2
		c-0.6,0.2-1.3,0.7-2.3,1.4c0.9,0.5,1.7,1.2,2.3,2.1V19.2z"/>
	<path fill="#FFFFFF" d="M182.6,15.9H180l5.2-3.9l1.1,0.1L182.6,15.9z"/>
	<path fill="#FFFFFF" d="M194.7,19.6c0.1,0,0.3,0.2,0.6,0.5c0.5,0.6,0.8,1.3,0.8,1.9c0,0.7-0.2,1.2-0.7,1.7s-1,0.7-1.7,0.7
		c-1.6,0-2.8-1.1-3.5-3.3c-0.2-0.6-0.3-1.8-0.3-3.5c0.2,0.1,0.5,0.2,0.8,0.5c0,0.2,0,0.3,0,0.4c0,1.9,0.7,3.2,2,4
		c0.2,0.1,0.5,0.2,0.8,0.2c0.4,0,0.8-0.1,1.1-0.2c0.5-0.2,0.7-0.4,0.7-0.8c0-0.1,0-0.2-0.1-0.3s-0.1-0.2-0.2-0.2
		c0,0-0.2,0.1-0.6,0.2c-0.4,0.1-0.7,0.2-0.9,0.2c-0.6,0-1.1-0.2-1.5-0.7s-0.6-1-0.6-1.6s0.3-1.2,1-1.9h-3l-1.2-1.1h11.1l1.1,1.1
		h-5.6c-0.1,0-0.1,0.1-0.3,0.2c-0.1,0.1-0.2,0.2-0.2,0.2c0,0.2,0.2,0.4,0.7,0.5c0.4,0.1,0.7,0.2,1,0.2s0.8-0.1,1.7-0.4
		c0.4,0.4,0.9,0.9,1.4,1.5c-1,0.9-1.4,2.2-1.4,3.7c0,0.6,0.2,1.4,0.7,2.5c-0.2,0.1-0.3,0.1-0.3,0.1c-0.3,0-0.6-0.1-0.9-0.3
		c0-0.1-0.1-0.6-0.4-1.7c-0.2-0.7-0.2-1.3-0.2-1.7c0-0.7,0.1-1.5,0.4-2.3c-0.6,0-1.1-0.1-1.7-0.3c-0.7-0.2-1.1-0.5-1.4-0.8
		c-0.1-0.1-0.2-0.3-0.4-0.6c-0.2,0-0.4,0.2-0.7,0.7s-0.4,0.8-0.4,1.1c0,0.3,0.1,0.4,0.4,0.4c0.2,0,0.5-0.1,1-0.4s0.8-0.4,0.8-0.4
		C194.6,19.5,194.7,19.5,194.7,19.6z"/>
	<path fill="#FFFFFF" d="M200.4,17.1c0-0.7-0.1-1.6-0.1-2.5l0.6,0.5c0.1,0.5,0.2,0.9,0.4,1.1h1.2l1.1,1.2h-2.3v9l-1.1-1.2v-6.3
		c0-0.4-0.1-0.8-0.4-1s-0.6-0.4-1-0.4c-0.1,0-0.1,0-0.2,0l-1.2-1.1c0.5-0.1,0.8-0.1,1.1-0.1C199.4,16.2,200,16.5,200.4,17.1z"/>
	<path fill="#FFFFFF" d="M205.4,20.2c0.3,0.3,0.4,0.7,0.4,1.1s-0.1,0.7-0.4,0.9c-0.2,0.2-0.6,0.3-0.9,0.3c-1.2,0-1.7-0.6-1.7-1.7
		c0-0.6,0.2-1.1,0.6-1.5c0.4-0.4,0.9-0.6,1.5-0.6c1.1,0,2,0.7,2.8,2.2v-3.6h-5.6l-1.2-1.1h9l1.2,1.1H209v9l-0.6-0.9
		c0-0.1,0-0.2,0-0.3c0-0.9-0.3-2-0.8-3C206.9,20.9,206.2,20.3,205.4,20.2z"/>
	<path fill="#FFFFFF" d="M212.9,24.6c-0.1-0.4-0.2-0.7-0.2-0.7c0-0.3,0.1-0.6,0.4-0.8c0.2-0.2,0.5-0.3,0.8-0.3
		c0.2,0,0.4,0.1,0.6,0.2c0.4,0.2,0.6,0.6,0.6,1s-0.2,0.8-0.5,1.1c-0.3,0.3-0.7,0.4-1.2,0.4c-1,0-1.7-0.5-2.3-1.5
		c-0.5-0.8-0.7-1.7-0.7-2.7c0-1.4,0.5-2.7,1.5-4h-2.2l-1.2-1.1h6.3l1.1,1.1c-0.6,0-1.2,0.1-1.7,0.3c-1,0.4-1.7,1-2.1,1.8
		c-0.4,0.7-0.6,1.6-0.6,2.8C211.7,23.3,212.1,24.1,212.9,24.6z"/>
	<path fill="#FFFFFF" d="M214.7,17.4l-1.2-1.1h10.8l1.2,1.1H214.7z M220.2,24.5c-0.3,0-0.7-0.1-1.1-0.2c-0.4-0.1-0.7-0.3-1-0.5
		c-1.2-1-2.2-3.2-3.1-6.4l0.9,0.4c0.7,1.6,1.2,2.7,1.6,3.3c0.8,1.2,1.8,1.8,2.9,1.8c0.5,0,1-0.2,1.5-0.6s0.7-0.8,0.7-1.3
		c0-0.4-0.1-0.8-0.4-1.1c-0.2-0.3-0.5-0.5-0.9-0.5c-0.1,0-0.2,0-0.3,0c0.1,0.2,0.2,0.5,0.2,0.8c0,0.9-0.5,1.3-1.5,1.3
		c-0.5,0-0.9-0.2-1.2-0.5s-0.4-0.7-0.4-1.2c0-0.6,0.2-1,0.7-1.4c0.4-0.3,0.9-0.5,1.5-0.5c1,0,1.8,0.4,2.4,1.1
		c0.6,0.7,0.9,1.5,0.9,2.5c0,0.9-0.3,1.6-1,2.2S221.1,24.5,220.2,24.5z"/>
	<path fill="#FFFFFF" d="M236.6,20.9c-0.1-0.5-0.3-0.9-0.7-1.2c-0.4-0.3-0.9-0.5-1.4-0.5h-0.1V26l-0.6-0.6c-0.2-0.5-0.3-0.9-0.3-1
		c-0.1-0.2-0.3-0.5-0.6-0.9c-0.8-1-1.7-1.5-2.8-1.6l-1.3-1.6c1.5-1.2,3-2.1,4.5-2.6v-0.4h-4.9l-1.2-1.1H238l1.1,1.1h-4.7v0.3
		c0.8,0,1.6,0.4,2.2,1.2c0.6,0.7,0.9,1.5,0.9,2.3c0,0.5-0.1,0.9-0.4,1.2c-0.3,0.4-0.7,0.6-1.1,0.6c-0.3,0-0.6-0.1-0.9-0.3
		c-0.3-0.2-0.4-0.5-0.4-0.8c0-0.4,0.2-0.7,0.5-1c0.2-0.1,0.4-0.1,0.6-0.1C236.2,20.6,236.4,20.7,236.6,20.9z M233.4,19.2
		c-0.6,0.2-1.3,0.7-2.3,1.4c0.9,0.5,1.7,1.2,2.3,2.1V19.2z"/>
	<path fill="#FFFFFF" d="M245.3,17.4v8.7l-1.2-1.1v-4.7c0-0.2-0.1-0.4-0.3-0.6s-0.4-0.3-0.6-0.3c-0.3,0-0.5,0.2-0.5,0.6
		c0,0,0,0.3,0.1,0.7l-0.7,0.3v-0.3c0,0,0-0.1-0.1-0.3c-0.2-0.4-0.4-0.6-0.6-0.8c-0.2-0.2-0.5-0.3-0.9-0.3s-0.7,0.1-0.9,0.4
		c-0.3,0.3-0.4,0.6-0.4,0.9c0,0.5,0.2,0.8,0.6,0.9c0-0.1-0.1-0.2-0.1-0.4c0-0.3,0.1-0.6,0.3-0.8c0.2-0.2,0.5-0.3,0.8-0.3
		c0.4,0,0.7,0.2,0.9,0.5s0.3,0.6,0.3,1c0,0.3-0.2,0.6-0.5,0.8c-0.3,0.2-0.6,0.3-0.9,0.3c-0.8,0-1.4-0.2-1.8-0.7
		c-0.5-0.5-0.7-1.1-0.7-1.8c0-0.6,0.2-1.2,0.5-1.6c0.4-0.5,0.9-0.8,1.5-0.8c0.7,0,1.2,0.3,1.7,0.8c0.1-0.2,0.3-0.4,0.5-0.6
		s0.4-0.3,0.6-0.3c0.5,0,1,0.3,1.4,0.9v-1.4H238l-1.2-1.2h9.8l1.2,1.2h-2.5V17.4z"/>
	<path fill="#FFFFFF" d="M258.8,20.9c-0.1-0.5-0.3-0.9-0.7-1.2c-0.4-0.3-0.9-0.5-1.4-0.5h-0.1V26l-0.6-0.6c-0.2-0.5-0.3-0.9-0.3-1
		c-0.1-0.2-0.3-0.5-0.6-0.9c-0.8-1-1.7-1.5-2.8-1.6l-1.3-1.6c1.5-1.2,3-2.1,4.5-2.6v-0.4h-4.9l-1.2-1.1h10.8l1.1,1.1h-4.7v0.3
		c0.8,0,1.6,0.4,2.2,1.2c0.6,0.7,0.9,1.5,0.9,2.3c0,0.5-0.1,0.9-0.4,1.2c-0.3,0.4-0.7,0.6-1.1,0.6c-0.3,0-0.6-0.1-0.9-0.3
		c-0.3-0.2-0.4-0.5-0.4-0.8c0-0.4,0.2-0.7,0.5-1c0.2-0.1,0.4-0.1,0.6-0.1C258.3,20.6,258.6,20.7,258.8,20.9z M255.5,19.2
		c-0.6,0.2-1.3,0.7-2.3,1.4c0.9,0.5,1.7,1.2,2.3,2.1V19.2z"/>
	<path fill="#FFFFFF" d="M266.1,17.4v8.5c-0.3-0.2-0.6-0.5-0.8-0.8c-0.2-0.4-0.4-0.7-0.5-1c-0.3-0.6-0.8-1.1-1.5-1.5
		s-1.4-0.6-2.1-0.6l-1.2-1.7c1.7-1.2,3.4-2.1,5-2.6v-0.3h-5l-1.2-1.1h8.3l1.2,1.1H266.1z M262.8,25.1c-0.3,0-0.5-0.1-0.7-0.3
		s-0.3-0.5-0.3-0.7c0-0.3,0.1-0.5,0.3-0.7c0.2-0.2,0.4-0.3,0.7-0.3c0.3,0,0.5,0.1,0.7,0.3c0.2,0.2,0.3,0.4,0.3,0.7
		c0,0.3-0.1,0.5-0.3,0.7S263.1,25.1,262.8,25.1z M265,19.2c-0.9,0.3-1.8,0.8-2.7,1.4c1.2,0.5,2.1,1.3,2.7,2.3V19.2z"/>
	<path fill="#FFFFFF" d="M268.2,21.8c-0.7,0-1.5-0.6-2.7-1.8v-1.5c0.9,1.4,1.7,2.2,2.3,2.2c0.2,0,0.4-0.1,0.6-0.3
		c0.1-0.2,0.2-0.4,0.2-0.7c0-0.2,0-0.4-0.1-0.5c0,0.3-0.1,0.5-0.4,0.7s-0.5,0.3-0.7,0.3s-0.4-0.1-0.6-0.4c-0.2-0.2-0.2-0.4-0.2-0.7
		c0-0.4,0.2-0.6,0.5-0.9c0.3-0.2,0.6-0.3,0.9-0.3s0.5,0.1,0.7,0.2c0.4,0.3,0.7,0.6,0.9,0.8c0.2,0.3,0.3,0.7,0.3,1.2
		s-0.2,0.9-0.5,1.2C269,21.6,268.6,21.8,268.2,21.8z M267,17.4l-1.2-1.1h4.5l1.2,1.1H267z"/>
	<path fill="#FFFFFF" d="M273.4,20.2c0.3,0.3,0.4,0.7,0.4,1.1s-0.1,0.7-0.4,0.9c-0.2,0.2-0.6,0.3-0.9,0.3c-1.2,0-1.7-0.6-1.7-1.7
		c0-0.6,0.2-1.1,0.6-1.5s0.9-0.6,1.5-0.6c1.1,0,2,0.7,2.8,2.2v-3.6h-5.6l-1.2-1.1h9l1.2,1.1h-2.4v9l-0.6-0.9c0-0.1,0-0.2,0-0.3
		c0-0.9-0.3-2-0.8-3C274.9,20.9,274.2,20.3,273.4,20.2z"/>
</g>
<text transform="matrix(1 0 0 1 62.5498 49.8662)" fill="#FFFFFF" font-family="'TimesNewRomanPSMT'" font-size="29.9219">+8809639217032</text>
</svg>
