<?xml version="1.0" encoding="utf-8"?>
<!-- Generator: Adobe Illustrator 24.1.3, SVG Export Plug-In . SVG Version: 6.00 Build 0)  -->
<svg version="1.1" id="Layer_1" xmlns="http://www.w3.org/2000/svg" xmlns:xlink="http://www.w3.org/1999/xlink" x="0px" y="0px"
	 viewBox="0 0 25 25" style="enable-background:new 0 0 25 25;" xml:space="preserve">
<style type="text/css">
	.st0{fill:#FFFFFF;}
	.st1{fill:#F2A321;}
</style>
<path class="st0" d="M7.71,9.99c0.02-0.81,0.33-1.46,0.84-2.02c0.22-0.24,0.53-0.29,0.83-0.35c0.56-0.12,0.61-0.09,0.88,0.41
	c0.29,0.53,0.6,1.05,0.91,1.57c0.17,0.29,0.18,0.44-0.06,0.68c-0.25,0.25-0.53,0.46-0.79,0.69c-0.35,0.32-0.36,0.41-0.12,0.83
	c0.44,0.77,0.94,1.49,1.61,2.09c0.51,0.45,1.08,0.8,1.67,1.13c0.29,0.16,0.4,0.14,0.63-0.1c0.12-0.13,0.24-0.27,0.36-0.41
	c0.13-0.15,0.25-0.31,0.39-0.44c0.26-0.26,0.41-0.26,0.72-0.08c0.53,0.32,1.07,0.63,1.61,0.93c0.41,0.23,0.42,0.3,0.38,0.76
	c-0.09,0.85-0.65,1.26-1.36,1.56c-0.59,0.25-1.19,0.29-1.79,0.09c-0.64-0.22-1.28-0.45-1.89-0.74c-0.74-0.34-1.35-0.88-1.94-1.44
	c-0.73-0.69-1.41-1.43-1.9-2.31c-0.42-0.74-0.69-1.55-0.91-2.37C7.72,10.3,7.72,10.12,7.71,9.99z"/>
<g>
	<path class="st1" d="M12.5,23.43c-6.03,0-10.93-4.9-10.93-10.93S6.47,1.57,12.5,1.57s10.93,4.9,10.93,10.93S18.53,23.43,12.5,23.43
		z M12.5,2.43C6.95,2.43,2.43,6.95,2.43,12.5S6.95,22.57,12.5,22.57s10.07-4.52,10.07-10.07S18.05,2.43,12.5,2.43z"/>
</g>
</svg>
